<svg xmlns="http://www.w3.org/2000/svg" width="24" height="24" viewBox="0 0 24 24">
    <path fill="#3572B0" fill-rule="evenodd" d="M24 12c0 6.627-5.373 12-12 12S0 18.627 0 12 5.373 0 12 0s12 5.373 12 12zm-8.182 3.03c-1.128.72-2.407 1.081-3.835 1.081s-2.704-.36-3.828-1.082l-.136.066-.045.117c.161.955.304 1.666.43 2.135.101.17.232.32.394.45.16.128.345.234.551.317a5.271 5.271 0 0 0 1.195.329 10.6 10.6 0 0 0 1.522.135 6.647 6.647 0 0 0 1.526-.16 5.453 5.453 0 0 0 1.432-.523c.182-.098.328-.235.439-.413.11-.178.182-.349.215-.512.033-.163.068-.368.106-.614.038-.246.077-.432.117-.56 0-.043.02-.133.06-.27a.745.745 0 0 0 .039-.329c-.015-.082-.076-.138-.182-.168zm1.368-7.025c-.302-.37-.844-.668-1.625-.892-1.496-.424-3.2-.546-5.108-.366-.947.088-1.736.244-2.366.468a8.658 8.658 0 0 0-.362.135 4.1 4.1 0 0 0-.348.165 1.797 1.797 0 0 0-.34.22 1.307 1.307 0 0 0-.238.273.805.805 0 0 0-.132.354 57.452 57.452 0 0 0 .344 2.233 389.71 389.71 0 0 0 .412 2.278c.01.044.023.129.04.256.018.126.034.223.046.288.013.066.035.149.068.249a.877.877 0 0 0 .322.45c.735.546 1.727.884 2.977 1.016 1.803.185 3.34-.03 4.61-.643.166-.083.303-.159.411-.227.108-.068.218-.166.329-.293a.833.833 0 0 0 .204-.409c.428-2.378.708-3.974.839-4.788.03-.112.044-.243.042-.395a.58.58 0 0 0-.125-.372zm-3.9 5.416c-.307.37-.69.575-1.148.614a1.66 1.66 0 0 1-1.25-.41c-.371-.31-.566-.689-.587-1.132a1.587 1.587 0 0 1 .261-.947c.189-.295.442-.51.76-.647.493-.214.99-.183 1.488.095.499.278.784.678.854 1.199.056.448-.07.858-.378 1.228zm1.618-4.85a2.925 2.925 0 0 1-.548.157c-.134.02-.36.049-.677.088a13.83 13.83 0 0 1-3.385-.007 17.05 17.05 0 0 1-.661-.084 3.166 3.166 0 0 1-.556-.161 1.74 1.74 0 0 1-.574-.333c.09-.127.217-.231.378-.314.161-.083.3-.136.416-.16.115-.025.282-.054.498-.088a13.111 13.111 0 0 1 4.277-.015c.247.039.426.07.537.091.111.022.257.076.438.161.182.085.323.194.424.325a1.59 1.59 0 0 1-.567.34z"/>
</svg>
