<svg xmlns="http://www.w3.org/2000/svg" width="24" height="24" viewBox="0 0 24 24">
    <path fill="#333" fill-rule="evenodd" d="M17.866 1.951C16.042.866 14.053.323 11.896.323c-2.159 0-4.149.543-5.972 1.628a11.967 11.967 0 0 0-4.328 4.416C.532 8.227 0 10.257 0 12.458c0 2.645.757 5.022 2.269 7.134 1.513 2.112 3.467 3.574 5.862 4.384.279.054.486.017.62-.11a.624.624 0 0 0 .2-.474l-.007-.853a134.5 134.5 0 0 1-.008-1.406l-.356.063c-.227.043-.514.06-.86.055a6.374 6.374 0 0 1-1.076-.11 2.375 2.375 0 0 1-1.038-.474 2 2 0 0 1-.68-.972l-.156-.363a3.96 3.96 0 0 0-.487-.806c-.223-.295-.448-.495-.674-.6l-.109-.08a1.166 1.166 0 0 1-.201-.19.84.84 0 0 1-.14-.22c-.03-.074-.005-.135.078-.182.082-.048.233-.071.449-.071l.31.047c.206.042.462.169.767.38.304.21.555.484.75.821.238.432.524.76.86.988.336.226.674.339 1.015.339.34 0 .635-.027.882-.079a3.06 3.06 0 0 0 .697-.237c.093-.706.347-1.249.759-1.627a10.371 10.371 0 0 1-1.587-.286 6.192 6.192 0 0 1-1.456-.616 4.193 4.193 0 0 1-1.247-1.058c-.33-.421-.602-.975-.813-1.659-.211-.685-.317-1.475-.317-2.37 0-1.275.408-2.36 1.224-3.256-.383-.958-.347-2.032.108-3.222.299-.096.743-.024 1.332.213.589.237 1.02.44 1.293.608.274.168.493.311.658.427.96-.274 1.952-.411 2.974-.411 1.022 0 2.013.137 2.974.41l.589-.379a8.253 8.253 0 0 1 1.424-.695c.547-.21.966-.268 1.255-.173.464 1.19.506 2.264.124 3.223.816.895 1.223 1.98 1.223 3.255 0 .895-.106 1.687-.317 2.378-.212.69-.485 1.243-.82 1.659a4.35 4.35 0 0 1-1.256 1.05c-.5.285-.986.49-1.455.616-.47.127-.999.222-1.587.286.536.474.804 1.221.804 2.243v3.334c0 .19.065.348.194.474.13.126.333.164.612.11 2.396-.811 4.35-2.272 5.862-4.385 1.513-2.112 2.27-4.49 2.27-7.133-.002-2.201-.534-4.232-1.596-6.091a11.969 11.969 0 0 0-4.33-4.416z"/>
</svg>
