<svg xmlns="http://www.w3.org/2000/svg" width="24" height="24" viewBox="0 0 24 24">
    <path fill="#0079BC" fill-rule="evenodd" d="M24 12c0 6.627-5.373 12-12 12S0 18.627 0 12 5.373 0 12 0s12 5.373 12 12zm-5.964.356c0-2.374-1.275-3.478-2.981-3.478-1.375 0-1.987.75-2.333 1.276v.027h-.014c.003-.01.01-.018.014-.027V9.06h-2.586c.035.725 0 7.727 0 7.727h2.586V12.47c0-.229.02-.461.088-.627.189-.46.612-.939 1.328-.939.936 0 1.31.707 1.31 1.747v4.135h2.588v-4.43zM7.428 5.333c-.885 0-1.464.577-1.464 1.337 0 .74.562 1.335 1.43 1.335h.017c.904 0 1.464-.596 1.464-1.335-.017-.76-.56-1.337-1.447-1.337zm-1.31 11.453h2.587V9.058H6.118v7.728z"/>
</svg>
