<svg xmlns="http://www.w3.org/2000/svg" width="24" height="24" viewBox="0 0 24 24">
    <path fill="#55ACEE" fill-rule="evenodd" d="M24 12c0 6.627-5.373 12-12 12S0 18.627 0 12 5.373 0 12 0s12 5.373 12 12zm-4.65-3.376a5.731 5.731 0 0 1-1.647.452 2.884 2.884 0 0 0 1.262-1.587 5.765 5.765 0 0 1-1.822.696 2.868 2.868 0 0 0-4.888 2.616 8.143 8.143 0 0 1-5.912-2.998 2.868 2.868 0 0 0 .887 3.83 2.853 2.853 0 0 1-1.3-.359v.037c0 1.389.99 2.548 2.301 2.812a2.858 2.858 0 0 1-1.295.05 2.872 2.872 0 0 0 2.68 1.991 5.752 5.752 0 0 1-3.562 1.228c-.232 0-.46-.013-.684-.04a8.117 8.117 0 0 0 4.396 1.289c5.276 0 8.161-4.371 8.161-8.162a8.99 8.99 0 0 0-.008-.37 5.822 5.822 0 0 0 1.43-1.485z"/>
</svg>
