<svg xmlns="http://www.w3.org/2000/svg" width="24" height="24" viewBox="0 0 24 24">
    <path fill="#4D76A1" fill-rule="evenodd" d="M24 12c0 6.627-5.373 12-12 12S0 18.627 0 12 5.373 0 12 0s12 5.373 12 12zm-12.453 5.263h.942s.284-.031.429-.188c.134-.144.13-.413.13-.413s-.02-1.264.568-1.45c.578-.184 1.32 1.22 2.108 1.76.595.41 1.047.32 1.047.32l2.104-.029s1.1-.068.578-.933c-.042-.072-.304-.64-1.564-1.81-1.32-1.225-1.143-1.027.447-3.146.968-1.29 1.355-2.077 1.234-2.414-.116-.322-.827-.237-.827-.237l-2.37.015s-.175-.024-.306.053c-.127.077-.209.255-.209.255s-.375.999-.875 1.847c-1.055 1.792-1.477 1.886-1.65 1.775-.4-.26-.3-1.042-.3-1.597 0-1.737.263-2.46-.513-2.647-.257-.063-.447-.104-1.105-.11-.846-.01-1.561.002-1.967.2-.27.132-.477.427-.35.443.156.021.511.097.7.353.242.33.233 1.071.233 1.071s.14 2.044-.326 2.298c-.32.174-.757-.182-1.698-1.807-.481-.832-.845-1.753-.845-1.753s-.07-.17-.195-.263c-.153-.112-.365-.147-.365-.147l-2.25.014s-.34.01-.463.157c-.11.13-.009.401-.009.401s1.762 4.124 3.758 6.201c1.83 1.906 3.909 1.781 3.909 1.781z"/>
</svg>
